# xmcd
#
# Track frame offsets:
#	182
#	13365
#	28110
#	37760
#	49532
#	61020
#	69177
#	79757
#	88527
#	99725
#	115282
#	131447
#	139985
#	150932
#	165592
#	174222
#	185552
#	200142
#	212482
#	221525
#	238927
#	251815
#	271775
#	285400
#	295352
#
# Disc length: 4114 seconds
#
# Revision: 1
# Processed by: cddbd v1.5.1PL2 Copyright (c) Steve Scherf et al.
# Submitted via: audiograbber 1.83.01
#
DISCID=60101019
DTITLE=Various Artist - Cajun Collection CD3
DYEAR=1995
DGENRE=Country
TTITLE0=John Trahan and Le Group Acadiana - Je L'ai Tout Entendu
TTITLE1=Beau Thomas and Cajun Power - Bosco Stomp
TTITLE2=Nonc Allie and The Basile Cajun Band - Amadee Two Step
TTITLE3=Cajun Born (vocal Johnnie Allan) - Divorce A Trente Ans
TTITLE4=Aldus Roger - What Will I Do
TTITLE5=L.J. Foret - Le Petite Fille De Houma
TTITLE6=Jimmy C. Newman - Grand Texas
TTITLE7=Rufus Thibodeaux - La Valse De Durald
TTITLE8=Doc Guidry - Cher Chérie
TTITLE9=Beau Thomas and Cajun Power - Creole Stomp
TTITLE10=John Trahan and Le Group Acadiana - Bonne Bonne Année
TTITLE11=Vin Bruce - J'ai Passé Devant Ta Porte
TTITLE12=Cajun Born (vocal Clinton West) - Le musicien
TTITLE13=Milton Davis - La Valse De Abbeville
TTITLE14=L.J. Foret - La L'alliance
TTITLE15=Doc Guidry and Lawrence Walker - Crowley Two Step
TTITLE16=Pee-Wee Broussard - Lafayette Walts
TTITLE17=Aldus Roger - Perrodin Two Step
TTITLE18=Rufus Thibodeaux - Lone Star Rag
TTITLE19=Jimmy Breaux - La Valse De Meche
TTITLE20=John Trahan and Le Group Acadiana - La Petite Ou La Grosse
TTITLE21=Jimmy Breaux - Fi Fi Poncho
TTITLE22=Cajun Born (vocal Warren Storm) - Dance Dance Tite Fille
TTITLE23=Aldus Roger - Wafus Two-Step
TTITLE24=John Trahan and Le Group Acadiana - Jongle A Moi
EXTD=
EXTT0=
EXTT1=
EXTT2=
EXTT3=
EXTT4=
EXTT5=
EXTT6=
EXTT7=
EXTT8=
EXTT9=
EXTT10=
EXTT11=
EXTT12=
EXTT13=
EXTT14=
EXTT15=
EXTT16=
EXTT17=
EXTT18=
EXTT19=
EXTT20=
EXTT21=
EXTT22=
EXTT23=
EXTT24=
PLAYORDER=
